# xmcd
#
# Track frame offsets: 
#        150
#        15115
#        31054
#        42619
#        57645
#        74251
#        91328
#        107319
#        122670
#        137066
#        153127
#        171260
#        189246
#        204348
#
# Disc length: 2856 seconds
#
# Revision: 0
# Processed by: cddbd v1.5.2PL0 Copyright (c) Steve Scherf et al.
# Submitted via: ExactAudioCopy v0.95b2
#
DISCID=ad0b260e
DTITLE=Various Artist - Bailão Sertanejo
DYEAR=2009
DGENRE=Country
TTITLE0=É Problema meu
TTITLE1=Tá Pegando
TTITLE2=Festa Louca
TTITLE3=Cumade e cumpade
TTITLE4=Coração Rodopiou
TTITLE5=Mexe que é bom
TTITLE6=Rosto molhado
TTITLE7=Nois é cauboi
TTITLE8=Saudade está juduando
TTITLE9=Quando ela quer
TTITLE10=Festa de rodeio
TTITLE11=De mal com você
TTITLE12=Festa do vardomiro
TTITLE13=Quem tem...tem medo
EXTD=
EXTT0=
EXTT1=
EXTT2=
EXTT3=
EXTT4=
EXTT5=
EXTT6=
EXTT7=
EXTT8=
EXTT9=
EXTT10=
EXTT11=
EXTT12=
EXTT13=
PLAYORDER=
